PathFileType	4	(X/Y/Z)	/Users/itak/Documents/Research/Walk-IL/dataset/trc/00464_00167.trc
DataRate	CameraRate	NumFrames	NumMarkers	Units	OrigDataRate	OrigDataStartFrame	OrigNumFrames
100.000000	100.000000	4	53	mm	100.000000	0	556
Frame#	Time	RPSI			LPSI			L3			STRN			T10			C7			CLAV			RBAK			LBAK			LSHO			LUPA			LAEL			LAOL			LWTS			LWPS			LFRA			LIFD			LHPS			LHTS			RSHO			RUPA			RAEL			RAOL			RWTS			RWPS			RFRA			RIFD			RHTS			RHPS			RBHD			LFHD			RFHD			LBHD			LHIP			RHIP			RASI			LASI			LKNE			LTHI			LANK			LTIP			LTOE			LMT1			LMT5			LHEE			RKNE			RTHI			RANK			RTIP			RTOE			RMT1			RMT5			RHEE			
		X1	Y1	Z1	X2	Y2	Z2	X3	Y3	Z3	X4	Y4	Z4	X5	Y5	Z5	X6	Y6	Z6	X7	Y7	Z7	X8	Y8	Z8	X9	Y9	Z9	X10	Y10	Z10	X11	Y11	Z11	X12	Y12	Z12	X13	Y13	Z13	X14	Y14	Z14	X15	Y15	Z15	X16	Y16	Z16	X17	Y17	Z17	X18	Y18	Z18	X19	Y19	Z19	X20	Y20	Z20	X21	Y21	Z21	X22	Y22	Z22	X23	Y23	Z23	X24	Y24	Z24	X25	Y25	Z25	X26	Y26	Z26	X27	Y27	Z27	X28	Y28	Z28	X29	Y29	Z29	X30	Y30	Z30	X31	Y31	Z31	X32	Y32	Z32	X33	Y33	Z33	X34	Y34	Z34	X35	Y35	Z35	X36	Y36	Z36	X37	Y37	Z37	X38	Y38	Z38	X39	Y39	Z39	X40	Y40	Z40	X41	Y41	Z41	X42	Y42	Z42	X43	Y43	Z43	X44	Y44	Z44	X45	Y45	Z45	X46	Y46	Z46	X47	Y47	Z47	X48	Y48	Z48	X49	Y49	Z49	X50	Y50	Z50	X51	Y51	Z51	X52	Y52	Z52	X53	Y53	Z53	

1	0	-1223.076293945312	962.6114501953125	-444.8514404296875	-1244.674072265625	962.0084838867188	-583.5474853515625	-1221.97314453125	1048.866333007812	-501.9441833496094	-968.0396118164062	1262.681518554688	-555.4481811523438	-1248.0751953125	1172.549072265625	-501.0022277832031	-1194.814453125	1443.807006835938	-497.3267517089844	-1010.55908203125	1373.962524414062	-549.4664306640625	-1231.197143554688	1321.787353515625	-395.07470703125	-1243.883666992188	1394.683471679688	-588.40625	-1162.107543945312	1426.173461914062	-687.9457397460938	-1187.789306640625	1309.67822265625	-784.1891479492188	-1166.236328125	1097.258178710938	-830.8148193359375	-1228.224365234375	1078.446655273438	-750.4099731445312	-1070.47314453125	898.5974731445312	-815.6786499023438	-1128.231689453125	884.1223754882812	-861.062255859375	-1144.5869140625	1011.610900878906	-848.5552978515625	-1062.433959960938	730.8812866210938	-837.3453369140625	-1117.509643554688	808.8414306640625	-871.154541015625	-1052.592163085938	814.6578979492188	-838.2921752929688	-1095.502319335938	1420.4814453125	-352.8943176269531	-1096.617919921875	1358.216064453125	-275.6014404296875	-1057.467041015625	1073.288696289062	-226.5614318847656	-1118.723754882812	1058.48583984375	-250.7290649414062	-977.4528198242188	863.30810546875	-284.8299865722656	-1031.621337890625	853.3977661132812	-215.5552520751953	-1052.109985351562	1015.652893066406	-216.7545013427734	-979.0841674804688	706.6559448242188	-268.0207214355469	-961.5966796875	765.512939453125	-269.5661010742188	-1018.337829589844	766.321044921875	-216.8154907226562	-1127.098876953125	1642.32470703125	-425.1875915527344	-1006.306091308594	1678.80078125	-589.346923828125	-998.26025390625	1677.186401367188	-458.5191040039062	-1155.456665039062	1646.823120117188	-601.1556396484375	-1129.354248046875	862.2860717773438	-719.5714721679688	-1089.222412109375	862.1356811523438	-321.4027709960938	-992.0252075195312	903.1008911132812	-399.6795959472656	-1018.3486328125	900.1671752929688	-658.0043334960938	-1142.787719726562	445.189208984375	-682.0003051757812	-1112.781494140625	595.0853271484375	-709.6612548828125	-1224.656494140625	39.61593627929688	-658.5737915039062	-1159.1533203125	299.1923828125	-692.6149291992188	-980.58154296875	43.68912887573242	-640.5446166992188	-1048.351806640625	51.87846755981445	-597.6482543945312	-1077.370239257812	43.50716400146484	-708.1520385742188	-1252.848754882812	46.8609504699707	-585.2926025390625	-1087.25537109375	469.8359985351562	-351.0879211425781	-1047.596801757812	727.3673095703125	-317.5621337890625	-1151.876953125	44.10581207275391	-337.0746765136719	-1090.282592773438	327.56982421875	-339.5174255371094	-947.5130615234375	47.7262077331543	-421.2166748046875	-1014.893676757812	53.89006423950195	-445.3800048828125	-1016.313049316406	47.8830451965332	-336.730224609375	-1223.795532226562	35.62400054931641	-371.7605895996094	
2	0.01	-1223.041015625	962.6219482421875	-444.9042053222656	-1244.5517578125	962.0189819335938	-583.69482421875	-1221.871826171875	1048.875610351562	-502.093017578125	-967.9514770507812	1262.691650390625	-555.4403076171875	-1248.001708984375	1172.537963867188	-501.1468811035156	-1194.792846679688	1443.798828125	-497.4054260253906	-1010.440124511719	1373.993408203125	-549.4766235351562	-1231.141967773438	1321.776000976562	-395.2578430175781	-1243.774658203125	1394.679077148438	-588.5486450195312	-1161.971435546875	1426.197143554688	-688.0372314453125	-1187.561279296875	1309.700439453125	-784.31494140625	-1165.940795898438	1097.314331054688	-830.960205078125	-1227.940063476562	1078.438720703125	-750.59423828125	-1070.113403320312	898.7445678710938	-815.5872192382812	-1127.844848632812	884.3739013671875	-861.1322631835938	-1144.14794921875	1011.67333984375	-848.6194458007812	-1061.724243164062	730.9789428710938	-837.316650390625	-1116.894409179688	808.8616333007812	-871.228759765625	-1052.023193359375	814.7396240234375	-838.3276977539062	-1095.541381835938	1420.513671875	-352.9466857910156	-1096.690185546875	1358.263793945312	-275.656005859375	-1057.496948242188	1073.36962890625	-226.5104370117188	-1118.726806640625	1058.512329101562	-250.7092742919922	-977.3410034179688	863.4234008789062	-284.6715087890625	-1031.543579101562	853.46728515625	-215.4782409667969	-1052.100341796875	1015.715270996094	-216.7037353515625	-978.87353515625	706.7645263671875	-267.7928771972656	-961.4111328125	765.6661376953125	-269.272705078125	-1018.176391601562	766.4166259765625	-216.6921691894531	-1127.088012695312	1642.30712890625	-425.2487487792969	-1006.459289550781	1678.889892578125	-589.4921875	-998.3449096679688	1677.263671875	-458.6484375	-1155.5693359375	1646.785888671875	-601.2217407226562	-1129.2900390625	862.2880249023438	-719.6316528320312	-1089.157104492188	862.099609375	-321.5362854003906	-992.0088500976562	903.111328125	-399.7397155761719	-1018.261413574219	900.1685180664062	-658.0588989257812	-1142.754516601562	445.1778259277344	-682.0463256835938	-1112.717163085938	595.0717163085938	-709.71435546875	-1224.654663085938	39.61034774780273	-658.5755615234375	-1159.1328125	299.177001953125	-692.6412963867188	-980.5886840820312	43.69543075561523	-640.5454711914062	-1048.352783203125	51.87789154052734	-597.6448364257812	-1077.384399414062	43.50300216674805	-708.1605224609375	-1252.847412109375	46.86841583251953	-585.3074340820312	-1087.2275390625	469.8373107910156	-351.1190490722656	-1047.589721679688	727.3709106445312	-317.5870056152344	-1151.876098632812	44.1060791015625	-337.07275390625	-1090.267456054688	327.5730590820312	-339.5541076660156	-947.5158081054688	47.7314453125	-421.212646484375	-1014.896057128906	53.88375473022461	-445.3791198730469	-1016.312316894531	47.88414001464844	-336.7331237792969	-1223.797729492188	35.62369155883789	-371.7600708007812	
3	0.02	-1223.00244140625	962.6367797851562	-444.9722595214844	-1244.400146484375	962.031005859375	-583.8807983398438	-1221.755004882812	1048.88623046875	-502.2721862792969	-967.84130859375	1262.706176757812	-555.4338989257812	-1247.907592773438	1172.5244140625	-501.3250122070312	-1194.765014648438	1443.790283203125	-497.5135192871094	-1010.277770996094	1374.039428710938	-549.5009155273438	-1231.082153320312	1321.7626953125	-395.4758911132812	-1243.644409179688	1394.675659179688	-588.721435546875	-1161.807006835938	1426.22705078125	-688.1503295898438	-1187.264282226562	1309.713134765625	-784.47265625	-1165.585693359375	1097.375610351562	-831.1281127929688	-1227.58740234375	1078.426147460938	-750.81298828125	-1069.651489257812	898.911376953125	-815.4986572265625	-1127.343383789062	884.6242065429688	-861.2106323242188	-1143.618774414062	1011.740844726562	-848.7006225585938	-1060.908813476562	731.0881958007812	-837.2651977539062	-1116.15771484375	808.8910522460938	-871.2968139648438	-1051.30810546875	814.831787109375	-838.3259887695312	-1095.588623046875	1420.550659179688	-353.0148315429688	-1096.770141601562	1358.322021484375	-275.7299499511719	-1057.521240234375	1073.465087890625	-226.4587707519531	-1118.722778320312	1058.539428710938	-250.6879577636719	-977.2015380859375	863.5636596679688	-284.494873046875	-1031.429931640625	853.5491943359375	-215.3905944824219	-1052.076904296875	1015.790466308594	-216.6510620117188	-978.602294921875	706.8974609375	-267.5372619628906	-961.1862182617188	765.8404541015625	-268.9422302246094	-1017.9765625	766.524169921875	-216.5506896972656	-1127.079711914062	1642.293579101562	-425.3274536132812	-1006.634887695312	1678.988525390625	-589.6633911132812	-998.43701171875	1677.352172851562	-458.8101501464844	-1155.701782226562	1646.743530273438	-601.3175659179688	-1129.205200195312	862.2855224609375	-719.6973266601562	-1089.074584960938	862.0482177734375	-321.7145080566406	-991.990478515625	903.1240234375	-399.8109130859375	-1018.139404296875	900.1727294921875	-658.1299438476562	-1142.7060546875	445.1627807617188	-682.1069946289062	-1112.617553710938	595.0578002929688	-709.779296875	-1224.651733398438	39.60375595092773	-658.5774536132812	-1159.101684570312	299.15478515625	-692.6705932617188	-980.5974731445312	43.70199203491211	-640.5467529296875	-1048.356079101562	51.87598419189453	-597.6409912109375	-1077.395141601562	43.50019454956055	-708.1656494140625	-1252.846069335938	46.87626266479492	-585.323974609375	-1087.20458984375	469.8404235839844	-351.1582336425781	-1047.58740234375	727.3773193359375	-317.6205749511719	-1151.875854492188	44.10458755493164	-337.0709838867188	-1090.254760742188	327.5775146484375	-339.5942077636719	-947.5192260742188	47.73838043212891	-421.2074279785156	-1014.899475097656	53.87839508056641	-445.3781127929688	-1016.311157226562	47.88532257080078	-336.7345886230469	-1223.80029296875	35.62224197387695	-371.7593688964844	
4	0.03	-1222.964721679688	962.6552124023438	-445.0548400878906	-1244.227905273438	962.0430908203125	-584.0963745117188	-1221.631958007812	1048.897216796875	-502.4697875976562	-967.7136840820312	1262.72607421875	-555.430908203125	-1247.795654296875	1172.50927734375	-501.5283508300781	-1194.730712890625	1443.78271484375	-497.6519775390625	-1010.074523925781	1374.101928710938	-549.5436401367188	-1231.02392578125	1321.748779296875	-395.7147521972656	-1243.5	1394.673828125	-588.9171752929688	-1161.622436523438	1426.2607421875	-688.2811279296875	-1186.9072265625	1309.708740234375	-784.654541015625	-1165.186767578125	1097.433959960938	-831.3047485351562	-1227.182739257812	1078.408569335938	-751.0508422851562	-1069.098999023438	899.0808715820312	-815.4227905273438	-1126.74267578125	884.8346557617188	-861.288818359375	-1143.031372070312	1011.804809570312	-848.7963256835938	-1060.04931640625	731.1970825195312	-837.1868286132812	-1115.344848632812	808.9321899414062	-871.3419799804688	-1050.478759765625	814.9266357421875	-838.2691040039062	-1095.640747070312	1420.589721679688	-353.0979614257812	-1096.849487304688	1358.3876953125	-275.8231811523438	-1057.53173828125	1073.568237304688	-226.4155426025391	-1118.70556640625	1058.56494140625	-250.6716766357422	-977.0354614257812	863.7206420898438	-284.320068359375	-1031.276733398438	853.6390380859375	-215.3019866943359	-1052.034790039062	1015.874145507812	-216.6049652099609	-978.2777099609375	707.047607421875	-267.2835693359375	-960.9351196289062	766.0200805664062	-268.6075439453125	-1017.745239257812	766.6358032226562	-216.4064178466797	-1127.077026367188	1642.288696289062	-425.4225158691406	-1006.816467285156	1679.0869140625	-589.8492431640625	-998.5256958007812	1677.444458007812	-458.9973754882812	-1155.843383789062	1646.700073242188	-601.44482421875	-1129.09912109375	862.278564453125	-719.7667846679688	-1088.981201171875	861.9833984375	-321.9311828613281	-991.9717407226562	903.1383666992188	-399.8878479003906	-1017.9833984375	900.1796264648438	-658.215576171875	-1142.641235351562	445.1437683105469	-682.1793212890625	-1112.477416992188	595.04541015625	-709.8538818359375	-1224.6474609375	39.59700393676758	-658.5790405273438	-1159.05859375	299.1251831054688	-692.7005615234375	-980.6070556640625	43.70766830444336	-640.5482788085938	-1048.362060546875	51.87214279174805	-597.6367797851562	-1077.401000976562	43.49955749511719	-708.1655883789062	-1252.8447265625	46.88341903686523	-585.3399047851562	-1087.192504882812	469.8455810546875	-351.2037353515625	-1047.594604492188	727.38720703125	-317.6617431640625	-1151.876586914062	44.10076522827148	-337.0696716308594	-1090.24755859375	327.5827331542969	-339.6343994140625	-947.5232543945312	47.74626541137695	-421.2012329101562	-1014.90380859375	53.87447738647461	-445.3770141601562	-1016.310424804688	47.88649368286133	-336.7340698242188	-1223.80322265625	35.61933898925781	-371.7579345703125	
